<svg width="21" height="16" viewBox="0 0 21 16" fill="none" xmlns="http://www.w3.org/2000/svg">
<g clip-path="url(#clip0)">
<path d="M15.5191 4.58437L15.5758 5.25514L16.2464 5.31391C18.2003 5.48515 19.6995 7.12108 19.7 9.08252C19.7004 11.1722 18.0067 12.8667 15.917 12.8672C15.917 12.8672 15.9169 12.8672 15.9169 12.8672H5.08287C3.389 12.8662 1.90216 11.7397 1.44289 10.1092C0.876313 8.09771 2.04766 6.00774 4.05916 5.44116L4.59292 5.29081L4.63944 4.73823C4.66113 4.48058 4.72983 4.22908 4.84214 3.99618C5.34999 2.94305 6.61543 2.50103 7.66857 3.00892L8.28242 3.30495L8.67226 2.74597C9.31316 1.82701 10.3297 1.24082 11.446 1.14643L11.3787 0.349688L11.446 1.14643C13.5201 0.971048 15.3437 2.51026 15.5191 4.58437Z" fill="#2196F3" stroke="#F9FFFF" stroke-width="1.6"/>
</g>
<defs>
<clipPath id="clip0">
<rect width="20" height="16" fill="white" transform="translate(0.5)"/>
</clipPath>
</defs>
</svg>
