<svg width="16" height="16" viewBox="0 0 16 16" fill="none" xmlns="http://www.w3.org/2000/svg">
<path d="M15.7626 7.64948C15.7448 7.6233 15.5867 7.39026 15.5014 7.27902C15.1033 6.7597 14.171 5.54355 12.8857 4.4797C11.2761 3.14751 9.63231 2.47205 8 2.47205C6.36769 2.47205 4.72394 3.14755 3.11438 4.47973C1.82903 5.54355 0.896719 6.7597 0.498563 7.27908C0.413344 7.3903 0.255188 7.62327 0.237406 7.64948L0 7.99986L0.237344 8.35023C0.255094 8.37642 0.413281 8.60952 0.498563 8.7208C0.896688 9.24011 1.82903 10.4563 3.11434 11.5201C4.72391 12.8523 6.36769 13.5278 8 13.5278C9.63231 13.5278 11.2761 12.8523 12.8857 11.5201C14.171 10.4562 15.1033 9.24008 15.5014 8.72077C15.5867 8.60951 15.7449 8.37645 15.7627 8.3502L16 7.99983L15.7626 7.64948ZM8 12.2785C5.88644 12.2785 3.70641 10.8389 1.52009 7.99989C3.70644 5.1608 5.88644 3.72126 8 3.72126C10.1136 3.72126 12.2936 5.16083 14.4799 7.99989C12.2936 10.839 10.1136 12.2785 8 12.2785Z" fill="#BEBEBE"/>
<path d="M8.00001 4.43979C6.03685 4.43979 4.4397 6.03691 4.4397 8.0001C4.4397 9.96326 6.03682 11.5604 8.00001 11.5604C9.9632 11.5604 11.5603 9.96326 11.5603 8.0001C11.5603 6.03691 9.96317 4.43979 8.00001 4.43979ZM8.00001 10.3112C6.72567 10.3112 5.68895 9.27441 5.68895 8.0001C5.68895 6.72579 6.72567 5.68904 8.00001 5.68904C9.27435 5.68904 10.3111 6.72576 10.3111 8.0001C10.3111 9.27441 9.27435 10.3112 8.00001 10.3112Z" fill="#BEBEBE"/>
</svg>
