<svg width="14" height="14" viewBox="0 0 14 14" fill="none" xmlns="http://www.w3.org/2000/svg">
<path d="M7.31474 8.99756C8.1782 8.86201 8.86196 8.1782 8.9975 7.3148L10.0322 6.28014C10.0869 6.51313 10.1152 6.75422 10.1152 7.00001C10.1152 8.71778 8.71775 10.1153 6.99996 10.1153C6.75469 10.1153 6.5136 10.0868 6.28041 10.0319L7.31474 8.99756Z" fill="#BEBEBE"/>
<path d="M0.436191 7.63088C0.361597 7.53353 0.223155 7.3296 0.207623 7.30664L-5.14984e-05 7.00006L0.207651 6.69351C0.22321 6.67056 0.361597 6.46669 0.436191 6.36937C0.78455 5.91497 1.60032 4.85084 2.725 3.91997C4.13339 2.75431 5.57168 2.16325 6.99995 2.16325C8.03866 2.16325 9.08841 2.47866 10.126 3.10111L13.2129 0.0142212L13.9858 0.78712L0.786956 13.986L0.0140305 13.2131L2.95928 10.2679C1.70866 9.29021 0.803417 8.10989 0.436191 7.63088ZM5.23666 7.9905L5.96644 7.26073C5.94546 7.17733 5.93423 7.09005 5.93423 7.00011C5.93423 6.41151 6.41138 5.93436 6.99998 5.93436C7.08988 5.93436 7.17716 5.94563 7.26056 5.96657L7.99031 5.23682C7.69079 5.06817 7.35156 4.9779 6.99998 4.9779C5.88493 4.9779 4.9778 5.88506 4.9778 7.00008C4.97777 7.35241 5.06806 7.69123 5.23666 7.9905ZM4.4444 8.78273C4.08076 8.2635 3.88468 7.64624 3.88468 7.00011C3.88468 5.28235 5.28216 3.88484 6.99995 3.88484C7.64469 3.88484 8.26271 4.08128 8.78235 4.44478L9.32534 3.90179C8.54019 3.47321 7.76032 3.25631 6.99998 3.25631C5.15058 3.25631 3.24303 4.51596 1.33006 7.00014C1.72794 7.51882 2.57567 8.61019 3.73844 9.48875L4.4444 8.78273Z" fill="#BEBEBE"/>
<path d="M5.77068 10.56C6.18453 10.6822 6.59501 10.7439 7 10.7439C8.84937 10.7439 10.7569 9.48425 12.6699 7.00012C12.3954 6.64225 11.8441 5.93207 11.102 5.22866L11.8752 4.45543C12.6926 5.23355 13.2835 6.00388 13.5638 6.36944C13.6383 6.46675 13.7767 6.6706 13.7923 6.69357L14 7.00007L13.7923 7.30664C13.7768 7.32956 13.6384 7.53352 13.5638 7.63089C13.2154 8.08528 12.3996 9.14939 11.2749 10.0803C9.86658 11.2459 8.42827 11.837 7 11.837C6.30675 11.837 5.60864 11.6965 4.91252 11.4181L5.77068 10.56Z" fill="#BEBEBE"/>
</svg>
