<svg width="32" height="32" viewBox="0 0 32 32" fill="none" xmlns="http://www.w3.org/2000/svg">
<path d="M31.3416 26.1399H5.99177V0.658436C5.99177 0.263374 5.7284 0 5.33333 0C4.93827 0 4.6749 0.263374 4.6749 0.658436V26.1399H0.658436C0.263374 26.1399 0 26.4033 0 26.7984C0 27.1934 0.263374 27.4568 0.658436 27.4568H4.6749V31.3416C4.6749 31.7366 4.93827 32 5.33333 32C5.7284 32 5.99177 31.7366 5.99177 31.3416V27.4568H31.3416C31.7366 27.4568 32 27.1934 32 26.7984C32 26.4033 31.6708 26.1399 31.3416 26.1399Z" fill="#72AF32"/>
<path d="M26.996 14.749L30.5516 10.9959C30.815 10.7325 30.815 10.3375 30.5516 10.0741C30.2882 9.81071 29.8931 9.81071 29.6298 10.0741L26.1401 13.7613L18.0413 5.06997C17.9096 4.93829 17.7121 4.87244 17.5804 4.87244C17.3829 4.87244 17.2512 4.93829 17.1195 5.06997L8.29643 14.4856C8.03306 14.749 8.03306 15.144 8.36228 15.4074C8.62565 15.6708 9.02071 15.6708 9.28409 15.3416L17.5145 6.45269L25.1524 14.749L21.7285 18.3704L17.6462 13.2346C17.5145 13.1029 17.3829 12.9712 17.1853 12.9712C16.9878 12.9712 16.7903 13.0371 16.6586 13.1687L8.36228 21.3333C8.0989 21.5967 8.0989 21.9918 8.36228 22.2552C8.49396 22.3868 8.69149 22.4527 8.82318 22.4527C9.02071 22.4527 9.1524 22.3868 9.28409 22.2552L17.1195 14.5515L21.2018 19.7531C21.3335 19.8848 21.531 20.0165 21.6627 20.0165C21.8602 20.0165 22.0578 19.9506 22.1894 19.8189L26.0742 15.7366L29.5639 19.5556C29.6956 19.6873 29.8931 19.7531 30.0248 19.7531C30.1565 19.7531 30.354 19.6873 30.4857 19.5556C30.7491 19.2922 30.7491 18.8971 30.5516 18.6338L26.996 14.749Z" fill="#72AF32"/>
</svg>
