<svg width="17" height="17" viewBox="0 0 17 17" fill="none" xmlns="http://www.w3.org/2000/svg">
<g clip-path="url(#clip0)">
<path d="M4.25 8.49997C4.25 7.70725 4.46841 6.96466 4.84784 6.32882V3.63169H2.15072C1.08025 5.02194 0.5 6.71628 0.5 8.49997C0.5 10.2837 1.08025 11.978 2.15072 13.3683H4.84784V10.6711C4.46841 10.0353 4.25 9.29269 4.25 8.49997Z" fill="#FBBD00"/>
<path d="M8.5 12.7499L6.625 14.6249L8.5 16.4999C10.2837 16.4999 11.978 15.9197 13.3683 14.8492V12.155H10.674C10.0326 12.5358 9.28691 12.7499 8.5 12.7499Z" fill="#0F9D58"/>
<path d="M4.84751 10.6711L2.15039 13.3682C2.36233 13.6435 2.59311 13.9071 2.84283 14.1568C4.35383 15.6678 6.3628 16.5 8.49967 16.5V12.75C6.94892 12.75 5.58976 11.915 4.84751 10.6711Z" fill="#31AA52"/>
<path d="M16.5 8.49994C16.5 8.01322 16.4559 7.52559 16.369 7.05066L16.2987 6.66631H8.5V10.4163H12.2954C11.9268 11.1495 11.3601 11.7476 10.674 12.155L13.3682 14.8493C13.6435 14.6373 13.9071 14.4065 14.1568 14.1568C15.6678 12.6458 16.5 10.6368 16.5 8.49994Z" fill="#3C79E6"/>
<path d="M11.5052 5.49478L11.8367 5.82622L14.4883 3.17459L14.1569 2.84316C12.6459 1.33216 10.6369 0.5 8.5 0.5L6.625 2.375L8.5 4.25C9.63519 4.25 10.7025 4.69206 11.5052 5.49478Z" fill="#CF2D48"/>
<path d="M8.50019 4.25V0.5C6.36332 0.5 4.35435 1.33216 2.84332 2.84313C2.5936 3.09284 2.36282 3.35644 2.15088 3.63172L4.848 6.32884C5.59029 5.085 6.94944 4.25 8.50019 4.25Z" fill="#EB4132"/>
</g>
<defs>
<clipPath id="clip0">
<rect width="16" height="16" fill="white" transform="translate(0.5 0.5)"/>
</clipPath>
</defs>
</svg>
