<svg width="38" height="38" viewBox="0 0 38 38" fill="none" xmlns="http://www.w3.org/2000/svg">
<path d="M11.8053 8.30373H26.1522C26.423 8.30373 26.6424 8.08334 26.6424 7.81249C26.6424 7.54061 26.423 7.32022 26.1522 7.32022H11.8053C11.5334 7.32022 11.313 7.54061 11.313 7.81249C11.313 8.08334 11.5334 8.30373 11.8053 8.30373Z" fill="#72AF32" stroke="#72AF32" stroke-width="0.2"/>
<path d="M6.15332 5.91039V33.458C6.15641 34.3087 6.84538 34.9976 7.69501 34.9997H30.2602C31.1119 34.9976 31.8009 34.3087 31.8019 33.458V5.91039C31.8009 5.0587 31.1119 4.36972 30.2602 4.36869H22.767C22.5198 2.27602 20.6238 0.779644 18.5312 1.02681C16.7783 1.23278 15.3963 2.61588 15.1893 4.36869H7.69501C6.84435 4.36972 6.15435 5.0587 6.15332 5.91039ZM30.8153 33.458C30.8153 33.7659 30.5661 34.0151 30.2581 34.0151H7.69501C7.38709 34.0151 7.13786 33.7659 7.13786 33.458V10.6724H30.8194L30.8153 33.458ZM18.9781 1.97428C20.3725 1.97634 21.5558 2.99177 21.7731 4.36869H16.1965C16.4117 2.99692 17.5888 1.98252 18.9781 1.97428ZM30.2602 5.35117C30.5691 5.35117 30.8194 5.60246 30.8194 5.91039V9.6879H7.13786V5.91039C7.13786 5.60246 7.38709 5.35117 7.69501 5.35117H30.2602Z" fill="#72AF32" stroke="#72AF32" stroke-width="0.2"/>
<path d="M18.3895 17.0001H27.6105C27.8253 17.0001 28 16.776 28 16.5006C28 16.2231 27.8253 16.0001 27.6105 16.0001H18.3895C18.1739 16.0001 18 16.2231 18 16.5006C18 16.776 18.1739 17.0001 18.3895 17.0001Z" fill="#72AF32" stroke="#72AF32" stroke-width="0.2"/>
<path d="M18.3895 22.0001H27.6105C27.8253 22.0001 28 21.7763 28 21.5001C28 21.224 27.8253 21.0001 27.6105 21.0001H18.3895C18.1739 21.0001 18 21.224 18 21.5001C18 21.7763 18.1739 22.0001 18.3895 22.0001Z" fill="#72AF32" stroke="#72AF32" stroke-width="0.2"/>
<path d="M18.3895 27.0001H27.6105C27.8253 27.0001 28 26.7752 28 26.5001C28 26.224 27.8253 26.0001 27.6105 26.0001H18.3895C18.1739 26.0001 18 26.224 18 26.5001C18 26.7752 18.1739 27.0001 18.3895 27.0001Z" fill="#72AF32" stroke="#72AF32" stroke-width="0.2"/>
<path d="M11.1853 18.3686C11.2625 18.4788 11.381 18.5519 11.5128 18.5725H11.5859C11.694 18.5725 11.8001 18.5355 11.8876 18.4675L15.0215 16.0185C15.2573 15.8815 15.3377 15.5808 15.2017 15.346C15.0658 15.1101 14.7651 15.0298 14.5303 15.1668C14.4891 15.1894 14.452 15.2193 14.419 15.2533L11.693 17.3861L11.2172 16.7075C11.0617 16.485 10.7548 16.4294 10.5323 16.5859C10.3099 16.7414 10.2543 17.0483 10.4108 17.2708L11.1853 18.3686Z" fill="#72AF32" stroke="#72AF32" stroke-width="0.2"/>
<path d="M11.1852 23.4261C11.2624 23.5363 11.3809 23.6105 11.5127 23.6311H11.5858C11.6939 23.63 11.8 23.593 11.8876 23.525L15.0214 21.075C15.2418 20.9143 15.2881 20.6064 15.1265 20.387C14.9658 20.1687 14.6579 20.1213 14.4385 20.284C14.4313 20.2892 14.4231 20.2954 14.4159 20.3016L11.6929 22.4364L11.2171 21.7578C11.0956 21.5147 10.8 21.4159 10.558 21.5363C10.315 21.6579 10.2161 21.9534 10.3376 22.1975C10.3572 22.2356 10.3809 22.2727 10.4107 22.3046L11.1852 23.4261Z" fill="#72AF32" stroke="#72AF32" stroke-width="0.2"/>
<path d="M11.1853 28.4983C11.2625 28.6074 11.3809 28.6806 11.5128 28.7012H11.5859C11.694 28.7012 11.8001 28.6641 11.8876 28.5961L15.0215 26.1461C15.2419 25.9844 15.2882 25.6765 15.1265 25.4581C14.9659 25.2388 14.6579 25.1935 14.4386 25.3541C14.4314 25.3603 14.4231 25.3655 14.4159 25.3716L11.6899 27.5004L11.2151 26.8217C11.0586 26.5992 10.7517 26.5446 10.5293 26.7002C10.3058 26.8567 10.2522 27.1636 10.4077 27.386L11.1853 28.4983Z" fill="#72AF32" stroke="#72AF32" stroke-width="0.2"/>
</svg>
