<svg width="35" height="35" viewBox="0 0 35 35" fill="none" xmlns="http://www.w3.org/2000/svg">
<path d="M26.25 15.3125V9.29688C26.25 8.86175 26.0771 8.44445 25.7695 8.13678C25.4618 7.8291 25.0445 7.65625 24.6094 7.65625C24.1743 7.65625 23.757 7.8291 23.4493 8.13678C23.1416 8.44445 22.9688 8.86175 22.9688 9.29688V15.3125C22.9688 15.7476 23.1416 16.1649 23.4493 16.4726C23.757 16.7803 24.1743 16.9531 24.6094 16.9531C25.0445 16.9531 25.4618 16.7803 25.7695 16.4726C26.0771 16.1649 26.25 15.7476 26.25 15.3125ZM24.0625 15.3125V9.29688C24.0625 9.15183 24.1201 9.01273 24.2227 8.91018C24.3252 8.80762 24.4643 8.75 24.6094 8.75C24.7544 8.75 24.8935 8.80762 24.9961 8.91018C25.0986 9.01273 25.1562 9.15183 25.1562 9.29688V15.3125C25.1562 15.4575 25.0986 15.5966 24.9961 15.6992C24.8935 15.8018 24.7544 15.8594 24.6094 15.8594C24.4643 15.8594 24.3252 15.8018 24.2227 15.6992C24.1201 15.5966 24.0625 15.4575 24.0625 15.3125Z" fill="#72AF32"/>
<path d="M14.7656 3.82812H11.4844C11.3393 3.82812 11.2002 3.88574 11.0977 3.9883C10.9951 4.09086 10.9375 4.22996 10.9375 4.375V6.08487C10.4682 6.20672 10.0526 6.48074 9.75574 6.86405C9.45886 7.24736 9.29748 7.7183 9.29688 8.20312V12.8985L8.91017 13.2852C8.85938 13.3359 8.8191 13.3962 8.79162 13.4626C8.76414 13.5289 8.75 13.6001 8.75 13.6719V15.8594H9.84375V13.8983L17.1796 6.5625H24.6094C25.3343 6.56331 26.0294 6.85166 26.542 7.36428C27.0546 7.8769 27.3429 8.57192 27.3438 9.29688V31.7188C27.3434 32.0087 27.2281 32.2867 27.023 32.4918C26.818 32.6968 26.54 32.8122 26.25 32.8125H25.7031V33.9062H26.25C26.83 33.9056 27.386 33.6749 27.7961 33.2648C28.2062 32.8547 28.4368 32.2987 28.4375 31.7188V9.29688C28.4364 8.28194 28.0327 7.30891 27.315 6.59124C26.5973 5.87358 25.6243 5.46989 24.6094 5.46875H16.9531C16.8813 5.46875 16.8102 5.48289 16.7438 5.51037C16.6775 5.53785 16.6172 5.57813 16.5664 5.62892L16.1797 6.01562H15.3125V4.375C15.3125 4.22996 15.2549 4.09086 15.1523 3.9883C15.0498 3.88574 14.9107 3.82812 14.7656 3.82812ZM14.2188 4.92188V6.01562H12.0312V4.92188H14.2188ZM10.3906 11.8047V8.20312C10.391 7.91315 10.5063 7.63515 10.7114 7.43011C10.9164 7.22506 11.1944 7.10972 11.4844 7.10938H15.086L10.3906 11.8047Z" fill="#72AF32"/>
<path d="M6.56251 18.9734V32.2656C6.56299 32.7006 6.736 33.1176 7.04357 33.4252C7.35114 33.7328 7.76816 33.9058 8.20313 33.9062H14.7656V32.8125H8.20313C8.05814 32.8123 7.91914 32.7547 7.81661 32.6521C7.71409 32.5496 7.65642 32.4106 7.65626 32.2656V30.625H13.6719C13.8169 30.625 13.956 30.5674 14.0586 30.4648C14.1611 30.3623 14.2188 30.2232 14.2188 30.0781V21.3281C14.2188 21.1831 14.1611 21.044 14.0586 20.9414C13.956 20.8389 13.8169 20.7812 13.6719 20.7812H7.65626V18.9734C7.65593 18.8439 7.70174 18.7184 7.78547 18.6196C7.86921 18.5208 7.9854 18.455 8.11324 18.434L14.3086 17.4014C14.4229 17.3824 14.5282 17.3275 14.6092 17.2448C14.6903 17.1621 14.7431 17.0558 14.7598 16.9412L14.9181 15.8594H16.4063V18.5938H17.5V13.125C17.5 12.98 17.4424 12.8409 17.3398 12.7383C17.2373 12.6357 17.0982 12.5781 16.9531 12.5781H14.7656C14.6343 12.5781 14.5074 12.6254 14.408 12.7113C14.3086 12.7971 14.2435 12.9159 14.2245 13.0458L13.7355 16.3881L7.93339 17.3551C7.54986 17.418 7.20125 17.6154 6.95005 17.9119C6.69884 18.2085 6.56145 18.5848 6.56251 18.9734ZM13.125 21.875V29.5312H7.65626V21.875H13.125ZM16.4063 13.6719V14.7656H15.0782L15.2383 13.6719H16.4063Z" fill="#72AF32"/>
<path d="M21.3281 16.4062H19.1406C18.9956 16.4062 18.8565 16.4639 18.7539 16.5664C18.6514 16.669 18.5938 16.8081 18.5938 16.9531V18.831L16.1249 20.3123C16.0439 20.3609 15.9769 20.4296 15.9304 20.5118C15.8838 20.594 15.8594 20.6868 15.8594 20.7812V32.2656C15.8599 32.7006 16.0329 33.1176 16.3405 33.4252C16.648 33.7327 17.065 33.9057 17.5 33.9062H22.9688C23.4037 33.9057 23.8207 33.7327 24.1283 33.4252C24.4359 33.1176 24.6089 32.7006 24.6094 32.2656V20.7812C24.6094 20.6868 24.5849 20.594 24.5384 20.5118C24.4919 20.4296 24.4248 20.3609 24.3439 20.3123L21.875 18.831V16.9531C21.875 16.8081 21.8174 16.669 21.7148 16.5664C21.6123 16.4639 21.4732 16.4062 21.3281 16.4062ZM20.7812 17.5V18.5938H19.6875V17.5H20.7812ZM16.9531 24.0625H23.5156V28.9844H16.9531V24.0625ZM22.9688 32.8125H17.5C17.355 32.8123 17.216 32.7547 17.1135 32.6521C17.011 32.5496 16.9533 32.4106 16.9531 32.2656V30.0781H23.5156V32.2656C23.5155 32.4106 23.4578 32.5496 23.3553 32.6521C23.2527 32.7547 23.1137 32.8123 22.9688 32.8125ZM23.5156 22.9688H16.9531V21.0908L19.2921 19.6875H21.1766L23.5156 21.0908V22.9688Z" fill="#72AF32"/>
</svg>
