<svg width="117" height="40" viewBox="0 0 117 40" fill="none" xmlns="http://www.w3.org/2000/svg">
<g clip-path="url(#clip0)">
<path d="M29.9263 17.4766C29.9263 15.975 29.8444 11.3452 34.9278 11.3452C39.6012 11.3452 39.9292 15.2659 39.9292 17.4766V21.9396C39.9292 23.3994 40.0111 28.0709 34.9278 28.0709C29.8444 28.0709 29.9263 23.3994 29.9263 21.8978V17.4766ZM36.5266 17.852C36.5266 15.8916 36.4856 14.3483 34.9278 14.3483C33.3289 14.3483 33.3289 15.8916 33.3289 17.852V21.4807C33.3289 23.4411 33.3699 24.9844 34.9278 24.9844C36.5266 24.9844 36.5266 23.4411 36.5266 21.4807V17.852Z" fill="black"/>
<path d="M42.1021 12.3462C42.1021 11.9291 42.143 11.512 42.922 11.512H44.7257C45.5046 11.512 45.5456 11.9291 45.5456 12.3462V27.0699C45.5456 27.8624 45.1357 27.9041 44.7257 27.9041H42.922C42.512 27.9041 42.1021 27.8624 42.1021 27.0699V12.3462Z" fill="black"/>
<path d="M47.8003 12.3462C47.8003 11.9291 47.8413 11.512 48.6202 11.512H50.424C51.2029 11.512 51.2439 11.9291 51.2439 12.3462V24.5673C51.2439 24.7341 51.2849 24.8593 51.4899 24.8593H55.7533C56.3273 24.8593 56.3683 25.1929 56.3683 25.4432V27.0699C56.3683 27.487 56.3273 27.9041 55.5484 27.9041H48.6202C48.2102 27.9041 47.8003 27.8624 47.8003 27.0699V12.3462Z" fill="black"/>
<path d="M63.0902 11.5124C67.3537 11.5124 68.6245 14.0567 68.6245 16.1005C68.6245 18.5614 67.2717 19.8127 66.2878 20.1464C66.2058 20.1881 66.0828 20.2298 66.0828 20.3549C66.0828 20.4801 66.1238 20.6052 66.2058 20.7303L69.0755 27.0286C69.2805 27.4457 69.0755 27.8628 68.5835 27.8628H66.2058C65.5909 27.8628 65.4679 27.6125 65.3449 27.3622L62.5983 21.2726C62.5163 21.1057 62.3113 20.9389 62.1063 20.9389H61.6554C61.4094 20.9389 61.4094 21.064 61.4094 21.2308V27.0286C61.4094 27.821 60.9995 27.8628 60.5895 27.8628H58.7857C58.3758 27.8628 57.9658 27.821 57.9658 27.0286V12.3466C57.9658 11.9295 58.0068 11.5124 58.7857 11.5124H63.0902ZM61.4504 17.7689C61.4504 18.0192 61.4914 18.1026 61.7784 18.1026H62.8442C64.1151 18.1026 64.976 17.3935 64.976 16.3091C64.976 15.4748 64.484 14.5155 62.8442 14.5155H61.8194C61.6144 14.5155 61.4094 14.5572 61.4094 14.9326V17.7689H61.4504Z" fill="#629C45"/>
<path d="M74.1599 22.2314C73.9139 22.2314 73.8729 22.3983 73.8729 22.5234V23.2742C73.8729 25.1094 75.6767 25.2346 76.1277 25.2346C77.0295 25.2346 78.0544 25.026 78.7103 24.7758C79.0383 24.6506 79.2843 24.8175 79.2843 25.1512V27.0698C79.2843 27.2784 79.2023 27.4452 78.8333 27.5703C77.7265 27.9874 76.4556 28.0709 75.8817 28.0709C74.0779 28.0709 70.7163 27.612 70.7163 23.3576V19.3952C70.7163 17.6433 71.1673 14.6819 75.1028 14.6819C76.2096 14.6819 79.4073 14.8488 79.4073 19.3952V21.6058C79.4073 22.2314 79.0793 22.2732 78.7513 22.2732H74.1599V22.2314ZM76.0867 19.6871C76.3326 19.6871 76.3326 19.5203 76.3326 19.4369V18.9363C76.3326 18.3941 76.2506 17.2679 75.1438 17.2679C73.9549 17.2679 73.9139 18.4775 73.9139 18.9363V19.4369C73.9139 19.6454 74.0369 19.6871 74.1599 19.6871H76.0867Z" fill="#629C45"/>
<path d="M81.1279 25.4014C81.1279 25.2346 81.0869 24.8592 81.4968 24.8592C81.6198 24.8592 81.8248 24.9426 82.1528 25.0261C82.7677 25.1929 83.7926 25.4014 84.4075 25.4014C85.4324 25.4014 85.7603 24.8592 85.7603 24.3587C85.7603 23.4828 84.6535 22.8988 83.8336 22.3149C82.8087 21.5641 81.1279 20.4379 81.1279 18.2273C81.1279 16.8926 81.8248 14.6819 85.1454 14.6819C88.548 14.6819 88.507 15.683 88.507 15.8915V17.3514C88.507 17.5182 88.507 17.8519 88.0561 17.8519C85.7603 17.8519 87.2771 17.3931 85.4734 17.3931C84.6125 17.3931 84.4485 17.9353 84.4485 18.1856C84.4485 19.0198 85.8013 19.6872 86.5802 20.2711C87.8921 21.2304 89.0399 22.2732 89.0399 24.317C89.0399 26.6945 87.2362 28.1126 84.5715 28.1126C81.0869 28.1126 81.0459 27.2367 81.0459 26.9864V25.4014H81.1279Z" fill="#629C45"/>
<path d="M99.3302 27.237C99.3302 27.8626 99.0023 27.9043 98.6743 27.9043H96.6245C96.3786 27.9043 96.1736 27.7375 96.1736 27.4455V27.3621C96.1736 27.1953 96.0506 27.1953 95.9686 27.1953C95.8866 27.1953 95.8456 27.2787 95.8046 27.3204C95.2307 27.8626 94.4518 28.0712 93.7959 28.0712C92.4021 28.0712 90.8442 27.1953 90.8442 24.5675V15.5164C90.8442 14.8908 91.1722 14.8491 91.5002 14.8491H93.3449C93.6319 14.8491 94.0009 14.8908 94.0009 15.5164V23.9002C94.0009 24.5258 94.4108 24.9846 95.0667 24.9846C96.2146 24.9846 96.1736 23.775 96.1736 23.2745V15.5164C96.1736 14.8908 96.5016 14.8491 96.8295 14.8491H98.6743C98.9613 14.8491 99.3302 14.8908 99.3302 15.5164V27.237Z" fill="#629C45"/>
<path d="M104.741 27.2367C104.741 27.8623 104.413 27.9041 104.085 27.9041H102.24C101.625 27.9041 101.584 27.5704 101.584 27.2367V15.5579C101.584 14.9322 101.912 14.8905 102.24 14.8905H104.331C104.454 14.8905 104.741 14.8905 104.741 15.2242V15.4744C104.741 15.6413 104.823 15.6413 104.864 15.6413C104.905 15.6413 104.987 15.5996 105.192 15.4327C105.643 15.099 106.217 14.6819 107.242 14.6819C107.898 14.6819 107.939 14.9322 107.939 15.2242V17.5182C107.939 17.977 107.529 17.977 107.406 17.977H106.996C106.668 17.977 106.012 18.0188 105.479 18.6027C104.741 19.3952 104.782 20.4797 104.782 21.2721V27.2367H104.741Z" fill="#629C45"/>
<path d="M109.007 25.4014C109.007 25.2346 108.966 24.8592 109.376 24.8592C109.499 24.8592 109.704 24.9426 110.032 25.0261C110.647 25.1929 111.671 25.4014 112.286 25.4014C113.311 25.4014 113.639 24.8592 113.639 24.3587C113.639 23.4828 112.532 22.8988 111.712 22.3149C110.688 21.5641 109.007 20.4379 109.007 18.2273C109.007 16.8926 109.704 14.6819 113.024 14.6819C116.427 14.6819 116.386 15.683 116.386 15.8915V17.3514C116.386 17.5182 116.386 17.8519 115.935 17.8519C113.639 17.8519 115.156 17.3931 113.352 17.3931C112.491 17.3931 112.327 17.9353 112.327 18.1856C112.327 19.0198 113.68 19.6872 114.459 20.2711C115.771 21.2304 116.919 22.2732 116.919 24.317C116.919 26.6945 115.115 28.1126 112.45 28.1126C108.966 28.1126 108.925 27.2367 108.925 26.9864V25.4014H109.007Z" fill="#629C45"/>
<path d="M30.0493 38.1231V32.5339H31.1562V34.7446H32.796V32.5339H33.9438V38.1231H32.796V35.6205H31.1562V38.1231H30.0493Z" fill="black"/>
<path d="M39.4373 35.4953H36.3217C36.3217 36.2461 36.4037 36.7466 36.6086 36.9969C36.8136 37.2472 37.0596 37.3723 37.3465 37.3723C37.8385 37.3723 38.1665 37.0386 38.2894 36.3295L39.3143 36.4547C39.0273 37.6225 38.3714 38.2065 37.3056 38.2065C36.6496 38.2065 36.1167 37.9562 35.7067 37.4974C35.2968 36.9969 35.1328 36.3295 35.1328 35.3702C35.1328 34.4109 35.3378 33.6601 35.7477 33.1596C36.1577 32.6173 36.6906 32.3671 37.3465 32.3671C37.7975 32.3671 38.2074 32.4922 38.5354 32.7425C38.8634 32.9927 39.0683 33.3264 39.1913 33.7852C39.3553 34.244 39.4373 34.828 39.4373 35.4953ZM38.2894 34.7028C38.2894 33.7018 37.9615 33.243 37.3465 33.243C36.7726 33.243 36.4447 33.7435 36.3627 34.7028H38.2894Z" fill="black"/>
<path d="M42.5941 40V38.1231C41.8562 38.0396 41.2822 37.7477 40.9133 37.2472C40.5443 36.7466 40.3394 36.121 40.3394 35.4119C40.3394 33.7852 41.0773 32.8676 42.5941 32.5756V30.6987H43.578V32.5339C45.0948 32.8259 45.8327 33.7852 45.8327 35.3702C45.8327 36.121 45.6277 36.7466 45.2588 37.2472C44.8898 37.7477 44.3159 38.0396 43.578 38.1231V40H42.5941ZM42.5941 37.3723V33.2847C41.8152 33.535 41.4462 34.2023 41.4462 35.3285C41.4462 36.4547 41.8152 37.1637 42.5941 37.3723ZM43.578 37.3723C44.3569 37.122 44.7258 36.4547 44.7258 35.3285C44.7258 34.2023 44.3569 33.535 43.578 33.2847V37.3723Z" fill="black"/>
<path d="M47.5941 38.1229V33.4097H46.3232V32.5338H49.9308V33.4097H48.701V38.1229H47.5941Z" fill="black"/>
<path d="M53.3755 38.1231V35.9125H52.3916L51.5717 38.1231H50.4238L51.4897 35.6622C50.9568 35.4119 50.6698 34.9531 50.6698 34.2858C50.6698 33.7852 50.7928 33.3681 50.9978 33.0345C51.2027 32.7008 51.6947 32.5339 52.3506 32.5339H54.5233V38.1231H53.3755ZM53.3755 35.12V33.3264H52.5146C52.2276 33.3264 52.0636 33.4098 51.9406 33.535C51.8177 33.7018 51.7357 33.9104 51.7357 34.244C51.7357 34.4943 51.7767 34.7029 51.8996 34.8697C52.0226 35.0365 52.2276 35.12 52.5966 35.12H53.3755Z" fill="black"/>
<path d="M55.958 38.1231V32.5339H57.1059V34.7446H58.7457V32.5339H59.8935V38.1231H58.7457V35.6205H57.1059V38.1231H55.958Z" fill="black"/>
<path d="M62.4354 34.1189L61.3285 33.9938C61.4105 33.4932 61.6155 33.1179 61.9844 32.8259C62.3534 32.5339 62.8043 32.4088 63.3783 32.4088C63.8702 32.4088 64.2802 32.4922 64.5671 32.7008C64.8541 32.9093 65.0591 33.1596 65.1411 33.4098C65.223 33.7018 65.264 34.1189 65.264 34.6611V36.5798C65.264 37.3306 65.305 37.8728 65.346 38.1231H64.2802C64.2392 37.9145 64.1982 37.6225 64.1982 37.2054C63.8702 37.9145 63.3373 38.2899 62.6404 38.2899C62.1894 38.2899 61.8205 38.1648 61.5335 37.8728C61.2465 37.5808 61.1235 37.2054 61.1235 36.7049C61.1235 36.0793 61.3285 35.6205 61.7385 35.2451C62.1484 34.9114 62.8453 34.7028 63.8702 34.7028C63.9112 34.7028 63.9932 34.7028 64.1162 34.7028V34.4943C64.1162 34.0772 64.0752 33.7852 63.9522 33.5767C63.8292 33.3681 63.6242 33.2847 63.3373 33.2847C62.8043 33.243 62.5174 33.535 62.4354 34.1189ZM64.1162 35.4119C63.9522 35.4119 63.8702 35.3702 63.7882 35.3702C62.8043 35.3702 62.3124 35.7456 62.3124 36.5381C62.3124 37.122 62.5584 37.414 63.0503 37.414C63.3373 37.414 63.5832 37.2471 63.7882 36.9552C63.9932 36.6632 64.1162 36.2044 64.1162 35.6622V35.4119Z" fill="black"/>
<path d="M69.1587 38.1231V35.9125H68.1748L67.3549 38.1231H66.207L67.2729 35.6622C66.74 35.4119 66.453 34.9531 66.453 34.2858C66.453 33.7852 66.576 33.3681 66.781 33.0345C66.9859 32.7008 67.4779 32.5339 68.1338 32.5339H70.3065V38.1231H69.1587ZM69.1587 35.12V33.3264H68.2978C68.0108 33.3264 67.8468 33.4098 67.7238 33.535C67.6009 33.7018 67.5189 33.9104 67.5189 34.244C67.5189 34.4943 67.5599 34.7029 67.6829 34.8697C67.8058 35.0365 68.0108 35.12 68.3798 35.12H69.1587Z" fill="black"/>
<path d="M74.7353 32.5338H75.8832V35.0364L77.646 32.5338H78.7528L77.318 34.4524L78.8758 38.1229H77.646L76.5391 35.3283L75.8012 36.3711V38.1229H74.6533V32.5338H74.7353Z" fill="black"/>
<path d="M83.6702 35.2868C83.6702 37.2889 82.9323 38.2483 81.4975 38.2483C80.8415 38.2483 80.3086 37.998 79.9397 37.5392C79.5707 37.0387 79.3657 36.3296 79.3657 35.3286C79.3657 33.3682 80.1036 32.4088 81.5385 32.4088C82.1944 32.4088 82.7273 32.6591 83.0963 33.1179C83.5062 33.5767 83.6702 34.3275 83.6702 35.2868ZM82.4813 35.3286C82.4813 34.5361 82.3994 33.9938 82.2354 33.7019C82.0714 33.4099 81.8254 33.243 81.5385 33.243C80.9235 33.243 80.5956 33.9104 80.5956 35.2868C80.5956 35.9959 80.6776 36.4964 80.8006 36.8301C80.9645 37.1638 81.2105 37.3306 81.5385 37.3306C81.8664 37.3306 82.1124 37.1638 82.2764 36.8301C82.3994 36.5382 82.4813 36.0376 82.4813 35.3286Z" fill="black"/>
<path d="M84.9419 38.1231V32.5339H86.5817L87.7296 37.2055L88.8364 32.5339H90.3942V38.1231H89.3694V33.5767L88.1805 38.1231H87.0326L85.8438 33.5767V38.1231H84.9419Z" fill="black"/>
<path d="M91.9521 38.1231V32.5339H95.6417V38.1231H94.4939V33.3264H93.059V38.1231H91.9521Z" fill="black"/>
<path d="M98.2244 34.1189L97.1176 33.9938C97.1996 33.4932 97.4045 33.1179 97.7735 32.8259C98.1425 32.5339 98.6344 32.4088 99.1673 32.4088C99.6593 32.4088 100.069 32.4922 100.356 32.7008C100.643 32.9093 100.848 33.1596 100.93 33.4098C101.012 33.7018 101.053 34.1189 101.053 34.6611V36.5798C101.053 37.3306 101.094 37.8728 101.135 38.1231H100.069C100.028 37.9145 99.9872 37.6225 99.9872 37.2054C99.6593 37.9145 99.1263 38.2899 98.4294 38.2899C97.9785 38.2899 97.6095 38.1648 97.3225 37.8728C97.0356 37.5808 96.9126 37.2054 96.9126 36.7049C96.9126 36.0793 97.1176 35.6205 97.5275 35.2451C97.9375 34.9114 98.6344 34.7028 99.6593 34.7028C99.7003 34.7028 99.7823 34.7028 99.9052 34.7028V34.4943C99.9052 34.0772 99.8642 33.7852 99.7413 33.5767C99.6183 33.3681 99.4133 33.2847 99.1263 33.2847C98.5934 33.243 98.3064 33.535 98.2244 34.1189ZM99.9052 35.4119C99.7413 35.4119 99.6593 35.3702 99.5773 35.3702C98.5934 35.3702 98.1015 35.7456 98.1015 36.5381C98.1015 37.122 98.3474 37.414 98.8394 37.414C99.1263 37.414 99.3723 37.2471 99.5773 36.9552C99.7822 36.6632 99.9052 36.2044 99.9052 35.6622V35.4119Z" fill="black"/>
<path d="M102.528 38.1231V32.5339H103.676V34.7446H105.316V32.5339H106.464V38.1231H105.316V35.6205H103.676V38.1231H102.528Z" fill="black"/>
<path d="M109.087 37.539V38.1229H107.939V32.5338H109.087V34.9529C109.087 35.5369 109.087 35.9123 109.046 36.1208C109.21 35.7871 109.415 35.4118 109.62 35.0364L110.727 33.2428V32.5338H111.874V38.1229H110.727V35.8289C110.727 35.2032 110.727 34.8278 110.768 34.661C110.604 35.0781 110.399 35.4535 110.112 35.8706L109.087 37.539Z" fill="black"/>
<path d="M115.893 38.1231V35.9125H114.909L114.089 38.1231H112.941L114.007 35.6622C113.474 35.4119 113.187 34.9531 113.187 34.2858C113.187 33.7852 113.31 33.3681 113.515 33.0345C113.72 32.7008 114.212 32.5339 114.868 32.5339H117.041V38.1231H115.893ZM115.893 35.12V33.3264H115.032C114.745 33.3264 114.581 33.4098 114.458 33.535C114.335 33.7018 114.253 33.9104 114.253 34.244C114.253 34.4943 114.294 34.7029 114.417 34.8697C114.54 35.0365 114.745 35.12 115.114 35.12H115.893Z" fill="black"/>
<path d="M0.17457 28.2458C-0.501729 24.0326 1.45088 20.3406 2.25558 18.517C7.68841 16.8504 19.3553 13.7099 20.2933 14.7019C21.1714 15.6305 23.5732 21.6194 24.5433 24.8547L10.1871 31.1764C7.2767 31.7647 0.789433 32.0763 0.17457 28.2458Z" fill="white"/>
<path d="M20.3337 14.7237C19.4318 13.1804 18.4889 11.6371 17.587 10.1773C14.4304 5.04692 12.3397 0 12.3397 0C12.3397 0 10.2079 5.04692 7.05131 10.1773C5.41151 12.805 3.60772 15.7247 2.25488 18.5193C2.70583 18.561 3.15677 18.561 3.60772 18.561C12.0937 18.6027 12.2987 14.9322 20.3337 14.7237Z" fill="url(#paint0_linear)"/>
<path d="M3.60765 28.488C2.29581 28.488 1.14794 28.4046 0.164062 28.2378C0.942969 32.659 4.18158 38.2482 12.2986 38.2482C21.9325 38.2482 24.7201 30.3233 24.6381 25.902C24.6381 25.5683 24.5971 25.2346 24.5561 24.8592C23.5313 24.6924 22.3834 24.609 20.9896 24.609C12.2986 24.6507 12.2986 28.488 3.60765 28.488Z" fill="url(#paint1_linear)"/>
<path d="M21.0305 16.4755C12.2985 16.4755 12.2985 20.3128 3.60757 20.3128C2.82866 20.3128 2.13174 20.2711 1.47582 20.2294C0.614926 22.2732 0.0409951 24.1919 0 25.902C0 26.0688 0 26.2774 0 26.4442C1.02488 26.611 2.21374 26.7362 3.60757 26.7362C12.2985 26.7362 12.2985 22.8571 20.9895 22.8571C22.2193 22.8571 23.2442 22.9405 24.1871 23.0657C23.6132 20.9802 22.5473 18.6861 21.3174 16.4338C21.1945 16.4755 21.1125 16.4755 21.0305 16.4755Z" fill="black"/>
</g>
<defs>
<linearGradient id="paint0_linear" x1="-2.75726" y1="9.29109" x2="26.3346" y2="9.29109" gradientUnits="userSpaceOnUse">
<stop stop-color="#8DC63F"/>
<stop offset="1" stop-color="#42712E"/>
</linearGradient>
<linearGradient id="paint1_linear" x1="-3.33339" y1="31.4553" x2="28.3326" y2="31.4553" gradientUnits="userSpaceOnUse">
<stop stop-color="#8DC63F"/>
<stop offset="1" stop-color="#42712E"/>
</linearGradient>
<clipPath id="clip0">
<rect width="117" height="40" fill="white"/>
</clipPath>
</defs>
</svg>
